HIERARCHY
ROOT Hips
{
	OFFSET 0.000000 0.000000 0.000000
	CHANNELS 6 Xposition Yposition Zposition Zrotation Yrotation Xrotation 
	JOINT LHipJoint
	{
		OFFSET 0.000000 0.000000 0.000000
		CHANNELS 3 Zrotation Yrotation Xrotation
		JOINT LeftUpLeg
		{
			OFFSET 1.363060 -1.794630 0.839290
			CHANNELS 3 Zrotation Yrotation Xrotation
			JOINT LeftLeg
			{
				OFFSET 2.448110 -6.726130 0.000000
				CHANNELS 3 Zrotation Yrotation Xrotation
				JOINT LeftFoot
				{
					OFFSET 2.562200 -7.039590 0.000000
					CHANNELS 3 Zrotation Yrotation Xrotation
					JOINT LeftToeBase
					{
						OFFSET 0.157640 -0.433110 2.322550
						CHANNELS 3 Zrotation Yrotation Xrotation
						End Site
						{
							OFFSET 0.000000 0.000000 0.000000
						}
					}
				}
			}
		}
	}
	JOINT RHipJoint
	{
		OFFSET 0.000000 0.000000 0.000000
		CHANNELS 3 Zrotation Yrotation Xrotation
		JOINT RightUpLeg
		{
			OFFSET -1.305520 -1.794630 0.839290
			CHANNELS 3 Zrotation Yrotation Xrotation
			JOINT RightLeg
			{
				OFFSET -2.542530 -6.985550 0.000000
				CHANNELS 3 Zrotation Yrotation Xrotation
				JOINT RightFoot
				{
					OFFSET -2.568260 -7.056230 0.000000
					CHANNELS 3 Zrotation Yrotation Xrotation
					JOINT RightToeBase
					{
						OFFSET -0.164730 -0.452590 2.363150
						CHANNELS 3 Zrotation Yrotation Xrotation
						End Site
						{
							OFFSET 0.000000 0.000000 0.000000
						}
					}
				}
			}
		}
	}
}
MOTION
Frames: 30
Frame Time: 0.008333
-0.304682 17.047730 0.480605 -113.280863 83.445994 -93.167280 -9.602331 1.099030 2.863824 -22.550269 2.506267 -40.020431 -3.765226 -1.146187 12.693511 0.982052 2.351740 -10.318719 -0.100400 -0.000000 -32.380600 9.246947 -5.533231 -0.470653 12.454730 -12.743886 -5.154767 2.250278 -1.881066 21.172828 0.579920 9.370472 20.952439 4.072500 0.000000 -83.339700
-0.086460 16.971793 0.448824 -112.156446 83.069961 -92.396761 -9.643825 1.049161 3.062766 -21.743668 1.526061 -39.917653 -3.527031 -1.002871 14.379234 1.140667 2.935160 -11.171963 -0.198100 0.000000 -27.233400 9.353627 -5.615281 -0.557874 11.996606 -13.436977 -5.194721 2.132092 -2.049903 23.167500 0.612955 11.633362 22.225591 5.349100 0.000000 -84.387400
0.130219 16.898816 0.416946 -111.594696 82.796856 -92.161836 -9.670278 1.011129 3.256827 -21.004700 0.437833 -39.914373 -3.281597 -0.813884 16.567132 1.313806 3.528569 -12.219344 -0.334800 -0.000000 -21.333700 9.494121 -5.661155 -0.646397 11.374976 -14.150884 -5.447627 1.979419 -2.208161 25.387749 0.604609 13.993477 23.647659 6.792500 0.000001 -85.220600
0.344319 16.829961 0.384380 -111.441416 82.625488 -92.321195 -9.683182 0.984934 3.422519 -20.401370 -0.645467 -39.968305 -3.044977 -0.594851 19.107294 1.485678 4.080495 -13.392433 -0.505700 -0.000001 -15.134000 9.660905 -5.666585 -0.735986 10.612763 -14.844824 -5.889682 1.795969 -2.351505 27.811843 0.550388 16.288507 25.180554 8.336000 -0.000000 -85.738700
0.555048 16.766414 0.350536 -111.557589 82.551974 -92.741469 -9.683055 0.970952 3.547426 -19.972570 -1.650691 -40.008946 -2.828313 -0.366376 21.789794 1.647799 4.587302 -14.602123 -0.699700 0.000000 -9.229700 9.846150 -5.627755 -0.826743 9.739146 -15.470189 -6.499532 1.587715 -2.478747 30.413639 0.453597 18.325768 26.767889 9.870100 0.000001 -85.856400
0.761825 16.709416 0.314815 -111.823228 82.567840 -93.299297 -9.669465 0.969834 3.629772 -19.729478 -2.542754 -39.963881 -2.638787 -0.149269 24.396110 1.799147 5.071033 -15.779122 -0.907400 -0.000001 -4.111700 10.040730 -5.543150 -0.916552 8.793438 -15.972982 -7.261947 1.361442 -2.591805 33.161331 0.323350 19.891885 28.338226 11.238400 0.000000 -85.501600
0.964444 16.660037 0.276719 -112.128718 82.664213 -93.877980 -9.639688 0.982826 3.673360 -19.668291 -3.309768 -39.774319 -2.482053 0.039584 26.741193 1.943626 5.555111 -16.896891 -1.126001 0.000000 -0.003500 10.237625 -5.413051 -1.002174 7.812460 -16.310475 -8.169173 1.122659 -2.694718 36.024311 0.170113 20.793453 29.815545 12.264500 0.000000 -84.648200
1.162954 16.619113 0.235508 -112.360976 82.823678 -94.355830 -9.593802 1.009141 3.684238 -19.764694 -3.948837 -39.406561 -2.361341 0.189160 28.694239 2.085952 6.050125 -17.960729 178.643200 0.000000 -3.106600 10.427925 -5.240889 -1.077301 6.841602 -16.443469 -9.213019 0.875538 -2.791877 38.964487 0.002143 20.869428 31.118248 12.772801 0.000000 -83.298500
1.357632 16.587091 0.190384 -112.395458 83.023845 -94.602584 -9.534901 1.046186 3.668142 -19.980412 -4.460309 -38.846003 -2.277283 0.293847 30.176866 2.228973 6.553192 -18.984548 178.398200 0.000000 -5.349600 10.602988 -5.032032 -1.135002 5.924705 -16.343770 -10.380451 0.622895 -2.886598 41.938529 -0.176577 20.023690 32.159476 12.630500 -0.000000 -81.481400
1.548927 16.564011 0.140490 -112.100853 83.238914 -94.485482 -9.469653 1.089745 3.630055 -20.267728 -4.847123 -38.091480 -2.227597 0.352108 31.153795 2.372026 7.050236 -19.971606 178.140700 0.000000 -6.881600 10.754531 -4.793288 -1.169052 5.100361 -15.994695 -11.651624 0.367144 -2.980450 44.898190 -0.365837 18.244632 32.847753 11.781900 -0.000000 -79.242200
1.737426 16.549532 0.085054 -111.362773 83.442944 -93.891572 -9.407642 1.134670 3.574400 -20.575901 -5.115505 -37.151042 -2.207433 0.365251 31.623644 2.510794 7.519957 -20.907384 177.878300 -0.000000 -7.841799 10.875033 -4.532677 -1.174773 4.397051 -15.391137 -13.000182 0.111146 -3.073376 47.791829 -0.567168 15.614588 33.094071 10.268900 0.000000 -76.629700
1.923764 16.543021 0.023386 -110.150501 83.609102 -92.792452 -9.361857 1.174755 3.506457 -20.854286 -5.277454 -36.043808 -2.209607 0.336902 31.615853 2.637308 7.934550 -21.760291 177.625099 -0.000000 -8.344700 10.956464 -4.260588 -1.149587 3.836807 -14.542297 -14.398442 -0.140997 -3.164800 50.568415 -0.780735 12.307298 32.819996 8.230201 0.000000 -73.640900
2.108546 16.543684 -0.044651 -108.461101 83.727675 -91.190569 -9.340222 1.206153 3.428912 -21.077051 -5.349490 -34.781863 -2.226809 0.271561 31.167981 2.744059 8.278233 -22.484598 177.398100 0.000000 -8.497400 10.997178 -3.984595 -1.093740 3.408873 -13.465684 -15.816802 -0.384685 -3.253602 53.178983 -1.005017 8.576455 31.995957 5.888700 0.000000 -70.355200
2.292426 16.550507 -0.119271 -106.490336 83.780535 -89.280951 -9.355324 1.222907 3.347406 -21.212037 -5.352889 -33.398866 -2.249731 0.175898 30.350758 2.821350 8.528232 -23.034139 177.217200 -0.000000 -8.389401 10.991811 -3.716854 -1.007197 3.116023 -12.189119 -17.233079 -0.613881 -3.338783 55.574022 -1.235211 4.695039 30.641571 3.488400 0.000000 -67.012000
2.476034 16.562367 -0.200284 -104.596919 83.757710 -87.418356 -9.415330 1.221177 3.269753 -21.241776 -5.317747 -31.934225 -2.269641 0.057530 29.248990 2.862083 8.670709 -23.373269 177.098600 0.000000 -8.129800 10.939077 -3.469381 -0.892497 2.949193 -10.761142 -18.636868 -0.822522 -3.420582 57.721853 -1.461827 0.939002 28.802546 1.262001 0.000000 -63.468499
2.659831 16.578331 -0.287177 -103.121592 83.661466 -85.940065 -9.520727 1.201412 3.201329 -21.166610 -5.271223 -30.424635 -2.279960 -0.074929 27.949399 2.862971 8.704141 -23.478598 177.052100 0.000000 -7.813400 10.843375 -3.248783 -0.752469 2.887728 -9.229933 -20.022389 -1.005613 -3.497765 59.595669 -1.675470 -2.472645 26.582885 -0.618300 -0.000001 -59.837100
2.844160 16.597467 -0.379144 -102.391338 83.497958 -85.167797 -9.668037 1.167612 3.148115 -20.993957 -5.238959 -28.910844 -2.276604 -0.212027 26.541611 2.824007 8.632047 -23.346860 177.079400 0.000000 -7.516200 10.710822 -3.057955 -0.590888 2.912287 -7.650839 -21.390982 -1.159337 -3.568172 61.180928 -1.866638 -5.395487 24.104773 -2.060801 0.000000 -56.257700
3.029157 16.619068 -0.475287 -102.626106 83.276270 -85.317665 -9.850165 1.127071 3.114841 -20.739750 -5.240653 -27.429928 -2.258613 -0.344464 25.107012 2.748392 8.463083 -22.993531 177.174899 0.000000 -7.281900 10.548698 -2.894698 -0.412427 3.003405 -6.078689 -22.747239 -1.281376 -3.628431 62.471934 -2.027783 -7.761978 21.500256 -3.051300 -0.000000 -52.905900
3.214862 16.642626 -0.574618 -103.919755 83.006515 -86.482754 -10.058358 1.088846 3.105070 -20.425504 -5.290080 -26.007509 -2.227685 -0.464610 23.707468 2.641740 8.210440 -22.446647 177.327400 -0.000000 -7.113100 10.364510 -2.753622 -0.224184 3.139766 -4.569720 -24.098034 -1.371251 -3.676151 63.480606 -2.151832 -9.556249 18.861364 -3.625700 0.000000 -49.684200
3.401157 16.667775 -0.676048 -106.272373 82.691791 -88.663577 -10.282511 1.061414 3.120303 -20.073775 -5.395819 -24.662190 -2.187324 -0.567080 22.388254 2.511032 7.887325 -21.746655 177.522100 -0.000000 -6.998499 10.165399 -2.626113 -0.031719 3.305973 -3.164275 -25.445044 -1.429672 -3.707036 64.209867 -2.239233 -10.830506 16.316818 -3.870300 0.000000 -47.083700
3.587801 16.694326 -0.778822 -109.569208 82.328731 -91.751118 -10.514013 1.051543 3.160001 -19.705327 -5.559390 -23.394339 -2.141271 -0.649699 21.165158 2.363323 7.509445 -20.929708 177.744400 0.000000 -6.880600 9.957712 -2.504670 0.156584 3.488757 -1.899364 -26.791434 -1.458886 -3.720697 64.685759 -2.288860 -11.640216 13.905217 -3.865201 0.000000 -44.822500
3.774546 16.722217 -0.882242 -113.632637 81.904258 -95.573080 -10.744324 1.063376 3.222096 -19.334424 -5.779956 -22.198248 -2.092769 -0.712620 20.038510 2.205116 7.090807 -20.030046 177.980800 -0.000000 -6.703400 9.747495 -2.381747 0.335529 3.682528 -0.790217 -28.135322 -1.461947 -3.716139 64.924414 -2.306225 -12.076256 11.686100 -3.700800 0.000000 -43.030801
3.961122 16.751335 -0.985864 -118.244707 81.398031 -99.917482 -10.965423 1.098377 3.303374 -18.968609 -6.055638 -21.062731 -2.044094 -0.757586 18.998185 2.041711 6.642669 -19.075915 178.220600 -0.000000 -6.433700 9.540632 -2.251672 0.501633 3.887176 0.162428 -29.472956 -1.442420 -3.693945 64.942643 -2.299107 -12.235489 9.690801 -3.452700 0.000000 -41.702200
4.147300 16.781653 -1.089462 -123.120992 80.790926 -104.505231 -11.172053 1.155307 3.399398 -18.608926 -6.380504 -19.972254 -1.995854 -0.787524 18.020770 1.876571 6.175845 -18.075855 178.457400 -0.000000 -5.996600 9.341071 -2.111593 0.654127 4.105551 0.974900 -30.801940 -1.403923 -3.656376 64.759719 -2.276329 -12.210312 7.923255 -3.176300 0.000000 -40.679600
4.332929 16.813045 -1.192983 -128.004518 80.067163 -109.082827 -11.360297 1.230963 3.505624 -18.251465 -6.749080 -18.915216 -1.947727 -0.805127 17.087521 1.711578 5.696310 -17.029981 178.687800 0.000000 -5.348500 9.151633 -1.961445 0.795130 4.341025 1.674423 -32.118643 -1.349662 -3.606404 64.390506 -2.247641 -12.087543 6.375510 -2.909700 0.000000 -39.813899
4.517964 16.845384 -1.296501 -132.673699 79.219650 -113.431048 -11.529336 1.320778 3.617621 -17.890094 -7.155076 -17.883246 -1.898346 -0.812486 16.182344 1.547254 5.208155 -15.924172 178.910700 0.000000 -4.440200 8.972440 -1.803926 0.928882 4.594904 2.295107 -33.420156 -1.282141 -3.547413 63.846829 -2.221920 -11.938647 5.027750 -2.674600 0.000000 -38.947700
4.702409 16.878447 -1.400077 -136.980178 78.255427 -117.402744 -11.680029 1.420059 3.731832 -17.519872 -7.594499 -16.872549 -1.846058 -0.810648 15.295805 1.383829 4.715975 -14.736248 179.125799 -0.000000 -3.242800 8.801921 -1.643152 1.060614 4.863314 2.870981 -34.704748 -1.203395 -3.482613 63.138850 -2.206117 -11.814707 3.854016 -2.480200 -0.000001 -37.979800
4.886369 16.911959 -1.503909 -140.845887 77.185257 -120.920688 -11.816404 1.525024 3.844568 -17.133863 -8.055878 -15.889849 -1.789171 -0.798666 14.434923 1.220026 4.216127 -13.436702 179.333800 0.000000 -1.680000 8.636325 -1.485207 1.196498 5.143314 3.433298 -35.968054 -1.114342 -3.414130 62.269519 -2.204362 -11.743992 2.828123 -2.327100 -0.000000 -36.886500
5.070006 16.945677 -1.608169 -144.252527 76.032916 -123.968361 -11.941135 1.632821 3.954745 -16.734932 -8.540108 -14.937354 -1.726112 -0.775790 13.603912 1.057752 3.718750 -12.003486 -0.468200 0.000000 -0.215400 8.472416 -1.334863 1.339867 5.423449 3.997190 -37.208957 -1.015267 -3.343817 61.244850 -2.216942 -11.727404 1.920540 -2.208400 -0.000000 -35.735100
5.253628 16.979302 -1.712869 -147.230300 74.824276 -126.578202 -12.057309 1.742474 4.061146 -16.325004 -9.040961 -14.025320 -1.656202 -0.740003 12.821943 0.898597 3.227447 -10.420260 -0.283500 0.000001 -2.436300 8.307183 -1.197089 1.492876 5.698419 4.567019 -38.423189 -0.905258 -3.272383 60.065183 -2.240555 -11.743287 1.103558 -2.113800 0.000001 -34.656000
